<svg xmlns="http://www.w3.org/2000/svg" width="476" height="238" viewBox="0 0 476 238">
  <g id="product_placeholder" transform="translate(-1277 -455)">
    <rect id="Rectangle_69" data-name="Rectangle 69" width="476" height="238" rx="4" transform="translate(1277 455)" fill="#96a5b0"/>
    <path id="expand-wide" d="M14.639,64A14.623,14.623,0,0,0,0,78.639v43.917a14.639,14.639,0,1,0,29.278,0V93.278H58.556a14.639,14.639,0,0,0,0-29.278ZM29.278,181.111a14.639,14.639,0,1,0-29.278,0v43.917a14.623,14.623,0,0,0,14.639,14.639H58.556a14.639,14.639,0,1,0,0-29.278H29.278ZM175.667,64a14.639,14.639,0,0,0,0,29.278h29.278v29.278a14.639,14.639,0,0,0,29.278,0V78.639A14.623,14.623,0,0,0,219.583,64Zm58.556,117.111a14.639,14.639,0,0,0-29.278,0v29.278H175.667a14.639,14.639,0,0,0,0,29.278h43.917a14.623,14.623,0,0,0,14.639-14.639Z" transform="translate(1396.778 422.167)" fill="#4c5861"/>
  </g>
</svg>
