<svg xmlns="http://www.w3.org/2000/svg" width="256" height="256" viewBox="0 0 256 256">
  <g id="store_placeholder" transform="translate(2293 -1235)">
    <rect id="Rectangle_69" data-name="Rectangle 69" width="256" height="256" rx="4" transform="translate(-2293 1235)" fill="#96a5b0"/>
    <path id="expand" d="M12.357,32A12.344,12.344,0,0,0,0,44.357V81.429a12.357,12.357,0,1,0,24.714,0V56.715H49.429a12.358,12.358,0,0,0,0-24.715ZM24.714,155.571a12.357,12.357,0,0,0-24.714,0v37.072A12.344,12.344,0,0,0,12.357,205H49.429a12.357,12.357,0,1,0,0-24.714H24.714ZM123.571,32a12.358,12.358,0,0,0,0,24.715h24.714V81.429a12.357,12.357,0,1,0,24.714,0V44.357A12.344,12.344,0,0,0,160.643,32ZM173,155.571a12.357,12.357,0,0,0-24.714,0v24.715H123.571a12.357,12.357,0,1,0,0,24.714h37.071A12.344,12.344,0,0,0,173,192.643Z" transform="translate(-2251 1245)" fill="#4c5861"/>
  </g>
</svg>
